Simulation
nRows=19
nColumns=15
endheader
time  TH_x TH_y TH_z SC_y  SC_z  SC_x  AC_y  AC_z  AC_x  GH_y  GH_z  GH_yy  EL_x  PS_y
0.0  0.000000  0.000000  0.000000  -27.970147654567693  4.560568390675622  3.1985146476998025  43.17034205469055  5.300861821414654  -2.774568941080762  126.04219709391158  4.208774657824549  -80.66012213431556  20.515975810851934  120.000000
0.031799999999999995  0.000000  0.000000  0.000000  -27.80680787896616  4.757687797784369  3.042971825669221  43.107848626317946  5.484632263122618  -2.548991050276975  128.81070525889908  3.6896197325348066  -83.34037633208463  20.65758910617673  120.000000
0.06359999999999999  0.000000  0.000000  0.000000  -27.63262812799782  4.905776133899561  2.914990333724149  43.062862451484015  5.592933868753646  -2.314881288331335  132.13997142476515  3.30033708955011  -86.54457240656627  20.82472897252657  120.000000
0.09539999999999998  0.000000  0.000000  0.000000  -27.461186786283424  5.024381969604935  2.806268724239063  43.03960295547612  5.644077625337339  -2.097142360408668  135.50430404367629  3.0572103122869057  -89.77334963520055  20.995555941581074  120.000000
0.12719999999999998  0.000000  0.000000  0.000000  -27.304886318304312  5.1306822748592396  2.7083285684125538  43.033699905212714  5.658653085144417  -1.9109458104624497  138.35105134932286  2.948190104078388  -92.49910203431163  21.1483893983727  120.000000
0.15899999999999997  0.000000  0.000000  0.000000  -27.17193501083473  5.227495561979394  2.6207723297572696  43.029496886186045  5.653606451878384  -1.7594858628643952  140.4043258321918  2.9383720253773107  -94.46780748028513  21.26042711212718  120.000000
0.19079999999999997  0.000000  0.000000  0.000000  -27.063143793380025  5.314091453783884  2.5445994068225994  43.019195864884864  5.638616752416205  -1.639740320063048  141.644233337316  2.9914439821151575  -95.67504899859529  21.316672678433346  120.000000
0.22259999999999996  0.000000  0.000000  0.000000  -26.974567677294214  5.385951461727526  2.478520273466691  43.00466455129568  5.617667931355401  -1.547584585877674  142.17387471926696  3.0760666934147696  -96.23529655950013  21.30669866321121  120.000000
0.25439999999999996  0.000000  0.000000  0.000000  -26.900900885904818  5.440324281160443  2.4197433071120544  42.99266768896883  5.590178246784928  -1.4764292593878499  142.12764513384246  3.1664289437618884  -96.2895607795176  21.224828748966775  120.000000
0.28619999999999995  0.000000  0.000000  0.000000  -26.837584215657014  5.4741438169374055  2.36451066099213  42.98987262913846  5.553181660247437  -1.418767382613626  141.60833226437347  3.2407379649303687  -95.94513397109957  21.06609901280039  120.000000
0.31799999999999995  0.000000  0.000000  0.000000  -26.78171983597757  5.488020887993047  2.3087833138951517  43.00077519826618  5.502224838327532  -1.3664779353286447  140.66739204919634  3.280990874415677  -95.25586511251677  20.82756693195041  120.000000
0.34979999999999994  0.000000  0.000000  0.000000  -26.7325997032454  5.484942581871255  2.248628435815122  43.0257744427849  5.433099746250285  -1.3129660251531967  139.2916091681741  3.2713150974868186  -94.21141948454347  20.506827180305116  120.000000
0.38159999999999994  0.000000  0.000000  0.000000  -26.691990214532076  5.47251204560508  2.181055633294138  43.061798685568114  5.342489610453594  -1.2534550471869814  137.38736189584606  3.1978168678063583  -92.72263919278191  20.10408285896803  120.000000
0.41339999999999993  0.000000  0.000000  0.000000  -26.66414002175108  5.459970057214964  2.1050938040509686  43.10299975092801  5.22870269427087  -1.1850475994526573  134.74004038931264  3.0474199949540925  -90.58397183754558  19.621473118220877  120.000000
0.44519999999999993  0.000000  0.000000  0.000000  -26.65521528696764  5.458045316375618  2.0228982631279466  43.14541342220892  5.09194508770257  -1.1056617092584176  130.90043813721928  2.8096980305771995  -87.36158134497728  19.06509229745257  120.000000
0.4769999999999999  0.000000  0.000000  0.000000  -26.673010480508047  5.474957443037741  1.9409001425191832  43.18980274366529  4.934492860475182  -1.0125521850430883  124.93137712137637  2.4799067158324317  -82.14268939927777  18.445616957436382  120.000000
0.5087999999999999  0.000000  0.000000  0.000000  -26.72661236251062  5.515856816195856  1.8700637533020716  43.24628222610494  4.760731376764578  -0.9013615338715129  114.74126963377768  2.0730178997523265  -72.8695245614073  17.78172033100625  120.000000
0.5406  0.000000  0.000000  0.000000  -26.826259894844316  5.5802156352377175  1.8247283479124177  43.33446252952321  4.577508655686156  -0.7651768040285759  95.64094946152817  1.6672526391508342  -54.896298294720296  17.101550888478798  120.000000
0.5723999999999999  0.000000  0.000000  0.000000  -26.983264781603168  5.662645901619841  1.8206065543749577  43.4810921885352  4.393912224297489  -0.594782184590078  62.274514059365444  1.5186727346455462  -22.91535125186539  16.442932398435044  120.000000
